<svg width="38.000000" height="38.000000" viewBox="0 0 38 38" fill="none" xmlns="http://www.w3.org/2000/svg" xmlns:xlink="http://www.w3.org/1999/xlink">
	<desc>
			Created with Pixso.
	</desc>
	<defs/>
	<rect id="mdi:call" rx="19.000000" width="38.000000" height="38.000000" fill="#FF7D44" fill-opacity="1.000000"/>
	<path id="Vector" d="M13.62 17.79C15.06 20.62 17.37 22.94 20.2 24.38L22.41 22.18C22.68 21.9 23.08 21.82 23.43 21.93C24.55 22.3 25.75 22.5 27 22.5C27.26 22.5 27.51 22.6 27.7 22.79C27.89 22.98 28 23.23 28 23.5L28 27C28 27.26 27.89 27.51 27.7 27.7C27.51 27.89 27.26 28 27 28C22.49 28 18.16 26.2 14.97 23.02C11.79 19.83 10 15.5 10 11C10 10.73 10.1 10.48 10.29 10.29C10.48 10.1 10.73 10 11 10L14.5 10C14.76 10 15.01 10.1 15.2 10.29C15.39 10.48 15.5 10.73 15.5 11C15.5 12.25 15.7 13.45 16.06 14.57C16.18 14.92 16.1 15.31 15.81 15.59L13.62 17.79Z" fill="#FFFFFF" fill-opacity="1.000000" fill-rule="nonzero"/>
</svg>
