<svg width="245.449890" height="43.300537" viewBox="0 0 245.45 43.3005" fill="none" xmlns="http://www.w3.org/2000/svg" xmlns:xlink="http://www.w3.org/1999/xlink">
	<desc>
			Created with Pixso.
	</desc>
	<defs/>
	<path id="Vector" d="M36.35 8.87L35.59 13.31L35.54 13.58L6.35 13.58C6.35 12.28 6.78 11.1 7.47 10.25C8.16 9.4 9.11 8.87 10.16 8.87L36.34 8.87L36.35 8.87Z" fill="#E14D2A" fill-opacity="1.000000" fill-rule="nonzero"/>
	<path id="Vector" d="M34.82 17.75L34.78 18.02L34.02 22.46L12.71 22.46C12.71 21.16 13.14 19.98 13.83 19.13C14.52 18.28 15.47 17.75 16.53 17.75L34.82 17.75L34.82 17.75Z" fill="#E14D2A" fill-opacity="1.000000" fill-rule="nonzero"/>
	<path id="Vector" d="M33.27 26.63L32.46 31.33L19.04 31.33C19.04 30.03 19.45 28.86 20.1 28C20.75 27.15 21.66 26.62 22.66 26.62L33.27 26.62L33.27 26.63Z" fill="#E14D2A" fill-opacity="1.000000" fill-rule="nonzero"/>
	<path id="Vector" d="M37.84 0L37.03 4.7L0 4.7C0 3.4 0.52 2.23 1.36 1.37C2.2 0.52 3.36 0 4.65 0L37.84 0Z" fill="#E14D2A" fill-opacity="1.000000" fill-rule="nonzero"/>
	<path id="Vector" d="M65.54 13.31L58.77 4.7L55.06 0L41.29 0L40.48 4.7L39 13.31L38.19 18.02L36.72 26.62L35.91 31.33L67.73 31.33L68.53 26.62L70.01 18.02L70.61 14.52C70.72 13.89 70.23 13.31 69.59 13.31L65.54 13.31L65.54 13.31ZM45.26 4.7L52.77 4.7L59.55 13.31L43.78 13.31L45.26 4.7ZM63.75 26.62L41.49 26.62L42.97 18.02L65.23 18.02L63.75 26.62Z" fill="#FFFFFF" fill-opacity="1.000000" fill-rule="nonzero"/>
	<path id="Auto Shipping" d="M131.39 31.97C131.37 32.39 130.99 32.73 130.55 32.73C130.11 32.73 129.76 32.39 129.78 31.97C129.8 31.55 130.18 31.2 130.62 31.2C131.06 31.2 131.41 31.55 131.39 31.97ZM149.2 31.97C149.19 32.39 148.81 32.73 148.36 32.73C147.93 32.73 147.57 32.39 147.6 31.97C147.61 31.55 147.99 31.2 148.44 31.2C148.88 31.2 149.22 31.55 149.2 31.97ZM120.8 33.91L119.53 33.91C119.54 33.05 118.95 32.59 117.95 32.59C116.87 32.59 116.11 33.13 115.99 33.88C115.84 34.71 116.7 35.04 117.35 35.21L118.17 35.43C119.23 35.7 120.52 36.31 120.27 37.88C120.01 39.36 118.67 40.44 116.62 40.44C114.66 40.44 113.59 39.46 113.77 37.88L115.09 37.88C115.01 38.83 115.78 39.28 116.8 39.28C117.92 39.28 118.82 38.72 118.96 37.87C119.1 37.1 118.42 36.79 117.52 36.54L116.54 36.26C115.21 35.88 114.46 35.17 114.65 33.96C114.91 32.45 116.41 31.45 118.16 31.45C119.94 31.45 120.98 32.46 120.8 33.91ZM85.3 37.99L84.12 40.3L82.72 40.3L87.31 31.57L88.83 31.57L90.52 40.3L89.13 40.3L88.71 37.99L85.3 37.99ZM125.1 34.77C124.19 34.77 123.43 35.36 123.25 36.41L122.61 40.3L121.34 40.3L122.79 31.57L124.04 31.57L123.51 34.81L123.59 34.81C124 34.11 124.7 33.67 125.72 33.67C127.06 33.67 127.82 34.49 127.56 36.13L126.86 40.3L125.58 40.3L126.25 36.28C126.41 35.33 125.97 34.77 125.1 34.77ZM101.61 33.75L102.96 33.75L102.79 34.77L101.44 34.77L100.84 38.37C100.72 39.11 101.08 39.25 101.49 39.25C101.69 39.25 101.85 39.21 101.94 39.19L102.01 40.25C101.84 40.3 101.55 40.38 101.14 40.38C100.13 40.4 99.33 39.82 99.53 38.64L100.17 34.77L99.22 34.77L99.38 33.75L100.34 33.75L100.6 32.18L101.87 32.18L101.61 33.75ZM87.79 33.15L85.88 36.88L88.52 36.88L87.85 33.15L87.79 33.15ZM109.54 37.11C109.21 39.11 107.81 40.43 105.99 40.43C104.12 40.43 103.13 39.05 103.47 37C103.79 34.99 105.19 33.67 107.01 33.67C108.88 33.67 109.87 35.04 109.54 37.11ZM132.42 42.75L131.14 42.75L132.65 33.75L133.89 33.75L133.72 34.81L133.82 34.81C134.11 34.41 134.67 33.67 135.89 33.67C137.47 33.67 138.42 34.91 138.08 37.03C137.73 39.15 136.36 40.42 134.78 40.42C133.58 40.42 133.24 39.7 133.08 39.28L133 39.28L132.42 42.75ZM139.84 42.75L138.55 42.75L140.06 33.75L141.31 33.75L141.13 34.81L141.24 34.81C141.53 34.41 142.09 33.67 143.31 33.67C144.89 33.67 145.84 34.91 145.49 37.03C145.14 39.15 143.78 40.42 142.19 40.42C140.99 40.42 140.66 39.7 140.49 39.28L140.42 39.28L139.84 42.75ZM153.08 34.77C152.19 34.77 151.47 35.36 151.28 36.41L150.64 40.3L149.37 40.3L150.46 33.75L151.68 33.75L151.5 34.81L151.58 34.81C151.99 34.12 152.72 33.67 153.71 33.67C155.03 33.67 155.8 34.51 155.53 36.13L154.83 40.3L153.55 40.3L154.22 36.28C154.38 35.34 153.95 34.77 153.08 34.77ZM162.21 40.44C161.94 42.13 160.52 42.89 158.86 42.89C157.29 42.89 156.53 42.21 156.31 41.4L157.49 40.95C157.66 41.33 157.95 41.86 159.02 41.86C159.99 41.86 160.78 41.41 160.96 40.39L161.16 39.1L161.08 39.1C160.78 39.52 160.21 40.2 159.01 40.2C157.46 40.2 156.45 39.09 156.8 37C157.14 34.91 158.51 33.67 160.1 33.67C161.32 33.67 161.64 34.41 161.8 34.81L161.89 34.81L162.07 33.75L163.32 33.75L162.21 40.44ZM94.47 39.22C95.19 39.22 96.09 38.69 96.28 37.58L96.92 33.75L98.19 33.75L97.1 40.3L95.85 40.3L96.04 39.16L95.97 39.16C95.57 39.86 94.79 40.38 93.81 40.38C92.55 40.38 91.81 39.54 92.07 37.91L92.77 33.75L94.04 33.75L93.37 37.76C93.23 38.65 93.68 39.22 94.47 39.22ZM129.83 40.3L128.56 40.3L129.65 33.75L130.92 33.75L129.83 40.3ZM147.65 40.3L146.37 40.3L147.47 33.75L148.74 33.75L147.65 40.3ZM104.72 37.11C104.52 38.33 104.89 39.36 106.07 39.36C107.29 39.36 108.07 38.28 108.28 37C108.47 35.77 108.11 34.73 106.94 34.73C105.71 34.73 104.93 35.82 104.72 37.11ZM135.44 34.75C134.32 34.75 133.57 35.65 133.35 37.02C133.13 38.4 133.58 39.34 134.68 39.34C135.82 39.34 136.57 38.34 136.79 37.02C137 35.72 136.59 34.75 135.44 34.75ZM142.86 34.75C141.74 34.75 140.98 35.65 140.77 37.02C140.54 38.4 140.99 39.34 142.1 39.34C143.23 39.34 143.98 38.34 144.21 37.02C144.41 35.72 144 34.75 142.86 34.75ZM158.09 36.98C157.88 38.27 158.3 39.14 159.44 39.14C160.53 39.14 161.31 38.33 161.53 36.98C161.75 35.65 161.26 34.75 160.16 34.75C159 34.75 158.3 35.72 158.09 36.98Z" fill="#FF7D44" fill-opacity="1.000000" fill-rule="evenodd"/>
	<path id="Vector" d="M91.47 23.3C89.18 23.3 87.23 22.89 85.61 22.07C83.99 21.25 82.76 20.11 81.91 18.65C81.05 17.19 80.63 15.52 80.63 13.62C80.63 11.72 80.95 9.91 81.6 8.26C82.25 6.61 83.19 5.17 84.41 3.94C85.64 2.71 87.11 1.75 88.82 1.05C90.52 0.35 92.42 0 94.51 0C96.77 0 98.72 0.4 100.33 1.23C101.95 2.05 103.19 3.18 104.05 4.64C104.92 6.1 105.35 7.77 105.35 9.67C105.35 11.57 105.02 13.38 104.36 15.03C103.7 16.68 102.76 18.12 101.53 19.35C100.3 20.58 98.84 21.54 97.15 22.24C95.45 22.94 93.56 23.3 91.47 23.3ZM91.82 19.61C93.25 19.61 94.53 19.35 95.67 18.85C96.82 18.34 97.79 17.64 98.6 16.74C99.41 15.85 100.03 14.81 100.46 13.64C100.89 12.46 101.11 11.23 101.11 9.93C101.11 8.64 100.84 7.61 100.3 6.66C99.76 5.72 98.97 4.98 97.94 4.47C96.9 3.95 95.63 3.69 94.12 3.69C92.72 3.69 91.44 3.94 90.29 4.45C89.13 4.96 88.15 5.66 87.34 6.55C86.53 7.45 85.92 8.48 85.5 9.66C85.08 10.83 84.87 12.07 84.87 13.36C84.87 14.66 85.13 15.68 85.66 16.63C86.19 17.58 86.97 18.31 88.01 18.83C89.04 19.35 90.31 19.61 91.82 19.61Z" fill="#FFFFFF" fill-opacity="1.000000" fill-rule="nonzero"/>
	<path id="Vector" d="M107.39 22.97L111.92 0.32L120.65 0.32C123.39 0.32 125.51 0.92 127.01 2.13C128.51 3.34 129.26 5.01 129.26 7.15C129.26 9.07 128.82 10.73 127.95 12.12C127.07 13.51 125.83 14.58 124.21 15.32C122.59 16.07 120.67 16.44 118.45 16.44L111.07 16.44L113.31 14.43L111.59 22.98L107.38 22.98L107.39 22.97ZM113.21 14.91L111.72 12.88L118.61 12.88C120.64 12.88 122.21 12.42 123.34 11.52C124.46 10.61 125.02 9.29 125.02 7.54C125.02 6.31 124.6 5.39 123.77 4.79C122.94 4.18 121.75 3.88 120.2 3.88L113.63 3.88L115.83 1.78L113.21 14.91Z" fill="#FFFFFF" fill-opacity="1.000000" fill-rule="nonzero"/>
	<path id="Vector" d="M134.5 22.97L138.32 3.88L130.81 3.88L131.52 0.32L150.71 0.32L150 3.88L142.49 3.88L138.71 22.97L134.5 22.97Z" fill="#FFFFFF" fill-opacity="1.000000" fill-rule="nonzero"/>
	<path id="Vector" d="M149.38 22.97L153.91 0.32L158.12 0.32L153.59 22.97L149.38 22.97Z" fill="#FFFFFF" fill-opacity="1.000000" fill-rule="nonzero"/>
	<path id="Vector" d="M159.7 22.97L164.23 0.32L167.66 0.32L174.26 16.92L172.48 16.89L185.39 0.32L189.02 0.32L184.49 22.97L180.51 22.97L183.78 6.47L184.71 6.5L173.78 20.38L171.9 20.38L166.18 6.47L166.99 6.57L163.72 22.97L159.71 22.97L159.7 22.97Z" fill="#FFFFFF" fill-opacity="1.000000" fill-rule="nonzero"/>
	<path id="Vector" d="M200.96 23.3C198.82 23.3 197.04 22.87 195.62 22.03C194.2 21.19 193.2 20.01 192.63 18.49C192.06 16.97 191.97 15.17 192.38 13.1L194.94 0.32L199.15 0.32L196.59 13.04C196.4 14.14 196.35 15.1 196.44 15.93C196.54 16.76 196.8 17.46 197.22 18C197.64 18.55 198.2 18.96 198.91 19.22C199.61 19.48 200.43 19.61 201.38 19.61C202.59 19.61 203.63 19.38 204.5 18.93C205.38 18.47 206.11 17.76 206.7 16.78C207.29 15.8 207.75 14.54 208.08 13.01L210.6 0.32L214.74 0.32L212.15 13.3C211.49 16.62 210.21 19.11 208.34 20.79C206.46 22.46 204 23.29 200.96 23.29L200.96 23.3Z" fill="#FFFFFF" fill-opacity="1.000000" fill-rule="nonzero"/>
	<path id="Vector" d="M216.13 22.97L220.66 0.32L224.09 0.32L230.69 16.92L228.91 16.89L241.82 0.32L245.45 0.32L240.92 22.97L236.94 22.97L240.2 6.47L241.14 6.5L230.21 20.38L228.33 20.38L222.6 6.47L223.41 6.57L220.15 22.97L216.13 22.97L216.13 22.97Z" fill="#FFFFFF" fill-opacity="1.000000" fill-rule="nonzero"/>
</svg>
