<svg width="24.000000" height="24.000000" viewBox="0 0 24 24" fill="none" xmlns="http://www.w3.org/2000/svg" xmlns:xlink="http://www.w3.org/1999/xlink">
	<desc>
			Created with Pixso.
	</desc>
	<defs/>
	<path id="Vector" d="M12.9 0.59L16.06 7.29L23.13 8.36C23.51 8.42 23.83 8.7 23.95 9.09C24.06 9.47 23.97 9.89 23.69 10.17L18.57 15.39L19.78 22.76C19.85 23.16 19.69 23.56 19.38 23.79C19.21 23.93 19 24 18.78 23.99C18.62 24 18.46 23.95 18.31 23.87L11.99 20.39L5.68 23.87C5.33 24.06 4.92 24.03 4.61 23.79C4.3 23.56 4.14 23.16 4.21 22.76L5.42 15.39L0.3 10.17C0.02 9.89 -0.07 9.47 0.04 9.09C0.16 8.7 0.48 8.42 0.86 8.36L7.93 7.29L11.09 0.59C11.26 0.23 11.61 0 11.99 0C12.38 0 12.73 0.23 12.9 0.59Z" fill="#FFA800" fill-opacity="1.000000" fill-rule="evenodd"/>
</svg>
